<?xml version="1.0" encoding="UTF-8"?>
<svg id="Layer_2" data-name="Layer 2" xmlns="http://www.w3.org/2000/svg" viewBox="0 0 212.47 212.6">
  <defs>
    <style>
      .cls-1 {
        fill: #9e9d9f;
      }

      .cls-1, .cls-2, .cls-3 {
        stroke-width: 0px;
      }

      .cls-2 {
        fill: #8e1942;
      }

      .cls-3 {
        fill: #fff;
      }
    </style>
  </defs>
  <g id="Layer_1-2" data-name="Layer 1">
    <g>
      <path class="cls-2" d="M201.32,135.5l-69.67,66.97c-14.46,13.9-37.44,13.44-51.34-1.02L10.13,128.43c-13.9-14.46-13.44-37.44,1.02-51.34L80.82,10.13c14.46-13.89,37.44-13.44,51.34,1.02l70.19,73.02c13.89,14.46,13.44,37.44-1.02,51.34"/>
      <g>
        <path class="cls-3" d="M130.44,71.33h-9.76c.02-2.06.06-4.13.04-6.19-.02-3.43.19-7.11-.33-10.51-.42-2.77-2.6-4.96-4.63-6.71-3.74-3.2-8.62-4.53-13.47-4.54-6.83-.02-17.36,3.14-18.21,11.27-.04.35-.05.7-.05,1.07,0,9.92,0,19.83,0,29.74v49.34s2.71,35.8,36.51,34.37v-62.88h9.9c9.65,0,17.48-7.83,17.48-17.48s-7.83-17.48-17.48-17.48Z"/>
        <path class="cls-1" d="M120.54,106.36v8.13s-35.73-7.99-35.3-8.13c.43-.14,35.3,0,35.3,0"/>
      </g>
    </g>
  </g>
</svg>